<?xml version="1.0" standalone="no"?>
<!DOCTYPE svg PUBLIC "-//W3C//DTD SVG 20010904//EN"
 "http://www.w3.org/TR/2001/REC-SVG-20010904/DTD/svg10.dtd">
<svg version="1.0" xmlns="http://www.w3.org/2000/svg"
 width="300.000000pt" height="300.000000pt" viewBox="0 0 300.000000 300.000000"
 preserveAspectRatio="xMidYMid meet">
<metadata>
Created by potrace 1.10, written by Peter Selinger 2001-2011
</metadata>
<g transform="translate(0.000000,300.000000) scale(0.100000,-0.100000)"
fill="#000000" stroke="none">
<path d="M1107 2960 c-100 -26 -215 -113 -266 -202 -18 -32 -47 -60 -89 -88
-101 -68 -153 -143 -151 -218 1 -35 2 -34 9 11 11 63 44 112 112 165 61 46 79
52 71 22 -8 -31 7 -24 18 9 8 22 21 33 52 44 23 8 50 18 60 22 9 4 17 3 17 -3
0 -5 -14 -15 -31 -22 -45 -19 -155 -134 -181 -191 -13 -26 -26 -48 -31 -49
-13 0 22 73 54 113 16 20 26 37 22 37 -15 -1 -62 -72 -78 -119 -26 -75 -39
-94 -74 -118 -41 -27 -111 -31 -135 -7 -20 20 -21 58 -1 74 9 7 13 15 10 18
-3 3 -14 -3 -25 -13 -31 -28 -25 -66 16 -106 32 -31 40 -34 95 -34 32 0 59 -1
59 -1 0 -1 -17 -37 -37 -80 -38 -79 -57 -194 -37 -214 5 -5 9 18 10 53 1 73
20 131 34 106 6 -9 5 -30 -1 -52 -12 -45 -16 -137 -6 -158 6 -13 1 -19 -24
-28 -71 -25 -131 -1 -131 52 0 15 -4 24 -9 21 -16 -9 -9 -42 14 -69 27 -32 94
-49 133 -35 40 16 43 2 6 -31 -35 -32 -73 -37 -92 -14 -7 9 -15 13 -18 10 -8
-7 29 -45 45 -45 14 0 18 -26 4 -34 -14 -9 7 -99 29 -120 26 -26 118 -33 134
-10 9 12 10 -4 3 -68 -8 -74 -6 -89 13 -141 33 -88 138 -207 182 -207 23 0 23
-24 -1 -76 -31 -68 -89 -94 -124 -56 -10 10 -17 27 -17 37 0 14 -3 16 -11 8
-8 -8 -6 -19 5 -41 30 -59 156 -82 222 -41 39 24 38 21 19 59 -8 16 -26 80
-41 142 -14 62 -36 147 -49 188 -17 53 -26 108 -30 190 l-5 115 18 -34 c11
-18 30 -40 43 -47 37 -20 45 -16 18 9 -13 13 -27 22 -30 20 -13 -6 -39 66 -39
106 0 31 7 49 31 76 18 20 34 34 36 31 2 -2 -3 -26 -11 -52 -17 -57 -30 -150
-16 -119 5 11 9 34 9 51 1 40 33 68 99 88 51 15 54 14 47 -2 -3 -9 -12 -37
-18 -62 -7 -25 -19 -50 -27 -57 -8 -7 -10 -12 -5 -12 18 0 40 24 42 47 2 12 9
37 17 56 15 36 7 34 124 20 24 -3 42 -11 42 -18 0 -15 59 -110 65 -104 3 2 -4
22 -15 43 -26 50 -27 80 -2 70 28 -12 82 -23 82 -18 0 3 7 0 15 -7 12 -10 15
-10 15 2 0 16 -30 46 -73 73 -24 16 -30 16 -38 4 -18 -29 -8 11 21 84 17 42
30 82 30 91 0 30 -20 16 -41 -29 -12 -25 -25 -45 -29 -45 -10 0 -20 53 -20
109 l0 46 -45 -79 c-24 -43 -57 -94 -72 -114 -15 -20 -33 -45 -40 -56 -20 -35
-15 -12 17 63 16 39 53 107 83 150 37 54 62 104 81 166 33 106 72 195 84 195
5 0 36 41 68 91 76 118 117 145 206 135 34 -3 74 -13 90 -21 21 -10 28 -11 25
-2 -5 16 -80 35 -140 36 -80 2 -126 -35 -208 -165 -40 -63 -54 -79 -43 -49 4
8 3 15 -1 15 -9 0 -60 -115 -83 -192 -12 -36 -33 -90 -48 -120 -29 -57 -64
-106 -65 -92 0 5 -9 -13 -19 -41 -16 -43 -19 -46 -19 -21 -1 27 -3 26 -62 -37
-58 -63 -165 -145 -182 -139 -5 1 -6 -2 -3 -6 9 -16 -33 -46 -97 -70 -34 -12
-52 -20 -39 -18 12 2 22 -1 22 -6 0 -6 8 -4 18 5 20 18 83 44 67 28 -7 -7 -8
-33 -1 -79 10 -73 0 -131 -14 -82 l-7 25 -4 -25 -4 -25 -19 32 c-19 31 -20 31
-49 17 -44 -23 -55 -14 -47 40 4 29 3 43 -3 39 -6 -4 -8 0 -4 10 4 12 -2 17
-26 22 -72 15 -72 15 -43 41 28 26 32 39 16 49 -18 11 -11 43 15 71 27 29 30
40 15 49 -6 4 -8 11 -5 16 3 5 0 7 -7 4 -19 -8 -7 178 15 229 22 50 21 57 -3
27 -19 -22 -20 -22 -20 -3 0 11 6 27 13 34 7 7 28 33 47 57 31 40 32 44 12 39
-12 -4 -22 -3 -22 1 0 13 120 146 160 176 21 17 37 35 35 41 -6 19 66 81 132
113 75 38 98 39 58 4 -28 -25 -28 -25 -5 -18 23 6 23 5 -7 -25 -18 -17 -33
-33 -33 -36 0 -8 42 27 121 99 65 60 74 65 114 65 24 -1 51 5 60 12 14 12 47
11 115 -5 21 -4 20 -3 -5 9 -16 8 -41 16 -55 17 -14 2 -28 9 -32 14 -5 6 -8 6
-8 -1 0 -6 -20 -12 -46 -12 -25 -1 -71 -12 -102 -23 -31 -12 -88 -31 -127 -44
-38 -13 -106 -37 -149 -54 -44 -17 -81 -29 -83 -27 -11 11 113 126 164 151 53
27 67 30 158 29 115 0 222 -8 282 -22 28 -7 45 -6 52 1 8 8 11 8 11 0 0 -15
27 -25 83 -28 35 -2 47 1 47 11 0 18 27 18 80 -1 53 -19 63 -13 16 9 -24 11
-62 16 -125 16 -54 0 -91 4 -91 10 0 17 151 12 205 -7 31 -10 65 -33 94 -62
24 -25 42 -38 38 -28 -10 27 9 20 42 -15 28 -30 44 -77 21 -63 -6 3 -7 -1 -4
-9 6 -17 25 -17 36 -1 14 19 31 -14 30 -55 -2 -44 -1 -44 44 -31 23 7 35 4 53
-11 28 -22 40 -16 20 8 -13 16 -12 16 7 6 23 -12 94 -88 94 -100 0 -4 -7 1
-14 11 -7 9 -18 17 -25 17 -6 0 -11 3 -11 8 0 4 -11 8 -25 8 -14 1 -25 -2 -25
-7 0 -5 8 -9 18 -9 25 0 141 -91 181 -141 24 -30 27 -37 10 -21 -14 12 -28 22
-32 22 -12 0 19 -53 42 -74 12 -11 21 -25 21 -32 0 -7 9 -18 21 -25 14 -7 18
-14 11 -21 -7 -7 -26 -3 -57 11 -26 12 -49 21 -52 21 -2 0 20 -19 49 -43 43
-35 57 -54 76 -107 13 -36 26 -76 29 -90 l4 -25 -18 24 c-52 67 -96 109 -121
114 -15 3 -54 11 -87 17 -92 17 -136 30 -130 40 3 5 -4 11 -15 15 -11 4 -18
11 -15 16 4 5 -3 9 -14 9 -11 0 -22 9 -26 20 -6 20 -55 30 -55 10 0 -5 -8 -7
-17 -4 -10 3 -2 -4 18 -15 39 -21 103 -94 106 -121 1 -8 3 -25 5 -37 1 -12 6
-19 10 -17 5 3 11 -2 14 -10 3 -9 10 -13 16 -10 5 3 5 11 -2 19 -13 16 -21 55
-14 66 3 5 14 4 25 -1 13 -7 19 -7 19 0 0 5 -4 10 -8 10 -5 0 -17 7 -28 15
-32 26 53 -11 109 -47 57 -36 75 -31 20 6 -28 20 -33 26 -18 26 11 0 33 -7 49
-15 15 -8 35 -15 44 -15 8 0 33 -18 54 -40 l39 -39 -5 -88 c-8 -149 -20 -197
-41 -163 -3 6 -2 10 4 10 5 0 -2 20 -16 45 -31 56 -41 59 -13 4 12 -23 19 -43
16 -46 -3 -3 8 -21 24 -40 17 -18 30 -38 30 -42 0 -19 -52 -22 -79 -5 l-26 17
19 -22 c11 -11 17 -24 13 -27 -9 -9 -48 -9 -79 -1 -24 6 -28 4 -28 -14 0 -19
-13 -19 -16 -1 0 4 -4 14 -7 22 -4 8 -11 44 -16 80 -5 36 -15 79 -22 95 -7 17
-13 35 -13 40 -1 6 -7 21 -15 35 -14 24 -13 24 4 10 18 -14 18 -13 -1 18 -10
19 -32 43 -49 55 -28 19 -29 19 -15 1 8 -10 21 -30 28 -43 13 -22 12 -23 -6
-19 -18 5 -16 -1 13 -43 20 -29 39 -73 46 -107 15 -73 4 -305 -17 -365 -9 -23
-29 -100 -45 -171 -35 -155 -54 -201 -108 -259 -35 -38 -41 -51 -41 -88 0 -24
-7 -57 -15 -73 -19 -36 -24 -114 -8 -124 7 -4 15 -29 20 -55 8 -47 10 -49 93
-100 l85 -53 -1 -80 c-1 -57 -7 -92 -22 -126 -19 -44 -23 -47 -69 -55 -26 -4
-92 -8 -145 -8 -64 0 -91 -3 -80 -9 21 -12 154 -10 212 3 24 5 46 9 47 7 1 -1
-24 -29 -56 -62 -95 -98 -244 -179 -385 -209 -15 -3 -26 -8 -24 -11 9 -8 111
17 172 43 135 56 314 208 342 290 21 61 34 176 24 212 -5 17 -5 31 -1 31 10 0
56 -42 60 -55 2 -5 8 -21 13 -35 14 -37 -14 -165 -59 -267 -10 -21 -18 -42
-19 -48 0 -5 -4 -17 -7 -25 -4 -8 -18 -48 -31 -88 -19 -55 -22 -72 -11 -72 7
0 21 21 31 48 10 26 22 53 28 61 6 8 9 26 8 40 -3 21 -1 24 9 14 7 -7 17 -13
23 -13 5 0 2 6 -8 13 -16 12 -17 17 -6 37 23 43 69 202 75 259 4 37 1 76 -9
115 -9 33 -14 61 -12 63 2 3 17 -12 33 -32 68 -89 75 -95 103 -95 16 0 42 -11
59 -25 30 -26 30 -26 15 -68 -8 -23 -28 -68 -45 -101 -17 -32 -26 -55 -21 -52
21 13 83 157 89 205 3 28 9 54 13 56 12 7 52 -27 64 -55 22 -53 64 -91 102
-95 23 -2 47 -13 62 -29 l26 -25 -44 -63 c-81 -117 -143 -203 -169 -230 -17
-19 -20 -28 -10 -27 13 0 51 48 161 207 28 41 57 76 65 79 8 3 24 -4 37 -16
12 -11 49 -32 82 -45 32 -14 84 -38 114 -55 63 -35 70 -37 70 -16 0 19 -63 58
-167 103 -66 29 -88 44 -100 67 -27 53 -54 74 -111 86 -49 11 -56 17 -69 48
-8 20 -26 51 -40 70 -28 36 -33 36 -154 15 -36 -6 -38 -4 -94 66 -64 80 -103
103 -195 115 -30 4 -76 16 -101 27 -39 16 -48 25 -51 49 -4 25 0 33 23 45 39
20 52 49 45 97 -7 40 -6 41 13 23 27 -24 105 -27 126 -4 8 10 10 13 3 8 -37
-31 -108 24 -108 84 0 20 2 36 5 36 2 0 21 -11 41 -25 52 -35 134 -35 169 -1
17 17 23 30 17 43 -6 16 -7 15 -10 -5 -11 -73 -107 -26 -131 64 -13 47 -6 74
17 74 25 0 118 104 148 167 23 45 28 70 28 131 1 52 -3 77 -11 79 -7 3 -13 11
-13 19 0 25 -35 15 -67 -18 -36 -40 -63 -105 -63 -155 0 -24 -8 -45 -22 -60
-22 -23 -19 -44 4 -25 7 5 24 12 38 14 46 6 47 59 3 139 -2 4 16 10 39 15 42
8 43 8 11 12 -40 4 -41 14 -7 41 33 26 44 19 44 -29 0 -24 5 -40 15 -44 17 -6
21 -46 5 -46 -6 0 -15 -12 -21 -27 -5 -16 -13 -35 -16 -43 -4 -8 -7 -23 -7
-32 -1 -10 -23 -40 -50 -68 -48 -50 -90 -71 -106 -54 -9 10 19 135 44 194 20
48 61 183 58 192 -4 13 52 49 72 46 12 -2 27 -17 36 -35 17 -37 28 -40 76 -17
32 15 50 39 21 28 -8 -3 -26 0 -40 5 -24 9 -26 13 -15 31 10 16 19 18 50 14
50 -8 98 2 128 27 16 14 19 19 8 15 -19 -6 -25 9 -8 19 12 7 14 75 3 75 -5 0
-8 -13 -9 -30 -1 -16 -9 -41 -18 -55 -16 -24 -18 -24 -45 -11 -15 8 -33 21
-39 29 -10 12 -7 17 17 27 54 22 76 111 50 203 -8 31 -7 45 6 73 17 37 13 71
-16 120 l-19 32 37 7 c99 17 159 110 133 204 -11 41 -48 106 -56 98 -3 -3 4
-19 17 -36 26 -35 37 -121 20 -163 -12 -31 -65 -68 -96 -68 -36 0 -95 21 -95
33 0 7 -14 32 -30 57 -17 25 -46 77 -64 115 -18 39 -53 91 -77 117 -24 26 -57
63 -74 84 -37 46 -86 68 -137 60 -37 -6 -38 -5 -38 24 0 47 -48 92 -137 129
-144 61 -285 75 -376 37 -27 -11 -40 -10 -92 6 -70 22 -213 32 -268 18z m845
-145 c9 -11 17 -27 17 -35 1 -15 -16 2 -61 65 l-22 30 24 -20 c13 -11 32 -29
42 -40z m128 -89 c14 -3 43 -24 65 -47 36 -39 37 -41 10 -24 -16 10 -39 24
-49 31 -11 8 -30 11 -42 8 -16 -4 -25 0 -33 14 -15 28 -14 34 7 29 9 -3 28 -8
42 -11z m138 -136 c23 -22 49 -55 57 -73 l16 -32 -21 25 c-11 14 -42 46 -67
73 -57 57 -44 63 15 7z m182 -352 c5 -13 9 -17 9 -9 1 22 31 -8 48 -46 15 -37
18 -103 4 -103 -6 0 -18 26 -28 57 -10 31 -28 67 -40 80 -24 23 -30 43 -13 43
6 0 15 -10 20 -22z m-1174 -284 c-3 -8 -18 -11 -48 -7 -24 3 -45 7 -47 9 -2 2
13 23 33 47 20 24 42 59 49 78 12 33 12 32 15 -40 2 -41 1 -80 -2 -87z m-139
46 c-11 -41 -19 -48 -75 -78 -34 -18 -62 -28 -62 -23 0 6 32 44 70 85 39 40
71 80 71 87 1 8 3 5 6 -6 2 -11 -2 -40 -10 -65z m-459 -10 l-12 -25 -4 33 c-2
19 0 41 3 50 6 14 9 13 17 -8 6 -17 5 -32 -4 -50z m1782 5 c0 -25 -4 -45 -10
-45 -5 0 -10 20 -10 45 0 25 5 45 10 45 6 0 10 -20 10 -45z m46 -52 c8 -44 -1
-76 -32 -110 l-25 -28 6 30 c3 17 9 63 12 104 5 65 7 72 19 56 8 -10 17 -33
20 -52z m-1197 -15 c3 6 11 0 18 -14 6 -13 7 -22 3 -19 -5 3 -12 1 -15 -5 -10
-16 -34 7 -30 28 5 27 6 28 12 13 3 -8 8 -9 12 -3z m-591 -155 c-2 -12 -14
-19 -37 -21 -24 -2 -30 -6 -21 -12 7 -4 24 -4 37 1 27 10 30 -2 7 -25 -8 -9
-12 -16 -7 -16 13 -1 -38 -40 -52 -40 -12 0 -35 49 -35 75 0 7 21 22 48 33 58
26 64 27 60 5z m122 -108 c15 -16 21 -31 17 -45 -3 -12 3 -41 13 -65 19 -43
19 -44 -1 -50 -20 -7 -45 -43 -35 -52 3 -3 12 0 21 7 12 10 15 9 16 -6 0 -11
6 -5 13 15 l12 34 23 -43 c13 -25 32 -78 42 -119 22 -87 15 -107 -28 -75 -27
20 -91 101 -92 117 -1 12 67 8 72 -5 2 -7 8 -10 12 -6 11 10 -2 37 -21 45 -9
3 -19 2 -23 -3 -3 -5 -16 -10 -27 -12 -48 -6 -86 108 -64 189 12 42 18 46 40
27 12 -11 12 -10 0 5 -19 25 -51 42 -44 23 3 -8 1 -17 -5 -21 -12 -7 -14 9 -5
43 8 29 35 28 64 -3z m1390 -245 c-16 -30 -31 -25 -24 8 10 40 16 46 26 28 5
-10 5 -23 -2 -36z m-1230 -294 c0 -7 -11 -18 -25 -24 -29 -14 -31 -10 -9 23
16 25 34 25 34 1z m1028 -205 c3 -16 -1 -22 -10 -19 -7 3 -15 15 -16 27 -3 16
1 22 10 19 7 -3 15 -15 16 -27z m22 -222 c44 0 146 -22 156 -32 5 -4 -3 -11
-16 -15 -25 -6 -25 -6 5 -12 21 -4 31 -12 33 -28 4 -25 -10 -29 -28 -7 -9 11
-23 14 -45 9 -35 -6 -58 12 -34 27 8 5 11 9 7 9 -3 0 -14 3 -24 7 -13 5 -16 3
-11 -10 3 -9 2 -17 -3 -17 -19 0 -85 52 -93 73 -7 18 -6 20 4 10 7 -7 29 -13
49 -14z"/>
<path d="M1721 2856 c2 -2 28 -15 57 -30 52 -26 73 -22 30 6 -20 13 -99 35
-87 24z"/>
<path d="M1243 2804 c-24 -14 -43 -28 -43 -31 0 -4 85 42 99 53 16 14 -22 -1
-56 -22z"/>
<path d="M1660 2814 c0 -7 80 -79 113 -103 17 -12 18 -12 9 6 -6 11 -29 32
-51 47 -22 15 -42 34 -45 42 -5 14 -26 20 -26 8z"/>
<path d="M1430 2800 c-111 -19 -259 -91 -320 -155 -24 -25 -28 -34 -14 -27 12
6 25 8 29 4 5 -4 5 -2 2 4 -4 8 32 34 96 71 117 69 162 86 215 82 55 -4 147
12 130 22 -15 10 -75 10 -138 -1z"/>
<path d="M1790 2769 c63 -50 68 -57 80 -114 7 -33 10 -82 6 -109 -7 -60 11
-51 25 14 18 78 -17 175 -74 210 -43 27 -70 26 -37 -1z"/>
<path d="M1387 2756 c-16 -7 -32 -17 -35 -22 -4 -5 -33 -23 -65 -39 -113 -58
-239 -187 -301 -308 -27 -53 -23 -48 26 27 41 63 137 168 195 213 29 22 93 60
142 84 50 24 91 47 91 52 0 10 -20 8 -53 -7z"/>
<path d="M1320 2660 c-6 -11 -15 -18 -19 -16 -4 3 -8 0 -8 -7 0 -7 -15 -33
-33 -59 -31 -44 -41 -79 -44 -155 0 -18 -4 -33 -8 -33 -5 0 -8 -5 -8 -12 0 -6
3 -8 7 -5 3 4 12 2 19 -4 9 -8 12 4 11 53 -2 52 3 74 30 128 17 36 41 80 53
98 12 17 19 32 16 32 -3 0 -10 -9 -16 -20z"/>
<path d="M1725 2645 c63 -18 66 -18 35 0 -14 8 -38 14 -55 14 -24 0 -20 -3 20
-14z"/>
<path d="M1960 2607 c0 -28 -34 -94 -68 -129 -14 -16 -21 -28 -14 -28 6 0 32
24 58 54 25 30 58 57 73 61 25 6 25 7 7 21 -25 18 -36 18 -36 0 0 -8 -4 -17
-9 -21 -6 -3 -7 9 -4 30 3 19 3 35 -1 35 -3 0 -6 -10 -6 -23z"/>
<path d="M1005 2568 c-26 -29 -61 -73 -78 -97 -41 -60 -87 -195 -86 -251 1
-44 2 -43 10 15 13 91 90 233 185 343 53 61 25 52 -31 -10z"/>
<path d="M1192 2590 c-18 -29 -15 -31 18 -12 34 19 39 32 12 32 -9 0 -23 -9
-30 -20z"/>
<path d="M1418 2523 c-31 -32 -63 -72 -72 -90 -25 -51 -19 -51 13 -1 16 25 37
52 48 59 19 14 79 89 71 89 -2 0 -29 -26 -60 -57z"/>
<path d="M1544 2548 c-37 -39 -86 -118 -108 -172 -22 -52 -19 -59 5 -13 15 29
26 37 46 37 26 0 26 1 7 15 -17 13 -16 14 14 4 26 -9 36 -9 45 1 9 9 9 11 1 7
-7 -4 -23 2 -35 14 -21 18 -22 20 -4 14 16 -5 18 -4 8 6 -18 18 -16 27 8 34
11 4 18 12 16 18 -2 7 9 24 24 40 16 15 23 27 16 27 -7 0 -27 -15 -43 -32z"/>
<path d="M1169 2433 c-60 -90 -104 -167 -91 -159 7 4 24 28 39 54 15 26 44 73
66 105 21 32 37 60 35 63 -3 2 -24 -26 -49 -63z"/>
<path d="M2040 2465 c-21 -25 -1 -31 23 -7 17 18 18 22 5 22 -8 0 -21 -7 -28
-15z"/>
<path d="M1922 2448 c-17 -11 -32 -21 -32 -23 0 -8 51 10 61 21 19 23 6 24
-29 2z"/>
<path d="M1750 2435 c-25 -26 -60 -34 -60 -12 0 8 -4 7 -10 -3 -5 -8 -10 -10
-10 -3 0 6 -8 10 -17 8 -10 -2 -21 -4 -25 -4 -5 -1 -8 -10 -8 -22 0 -19 2 -19
21 -5 22 15 53 11 43 -6 -4 -6 3 -5 15 1 22 12 45 6 37 -8 -7 -11 107 8 119
20 11 11 5 11 -52 0 -26 -5 -43 -5 -43 1 0 5 -4 6 -10 3 -5 -3 -10 -1 -10 4 0
6 3 11 8 11 4 0 13 9 20 20 16 27 10 25 -18 -5z"/>
<path d="M1581 2417 c-1 -11 -6 -15 -12 -11 -8 5 -9 2 -2 -11 8 -14 -2 -30
-57 -85 -64 -65 -105 -129 -98 -152 2 -6 19 12 37 40 18 28 59 76 92 106 58
54 66 72 49 111 -8 18 -9 18 -9 2z"/>
<path d="M1867 2383 c-10 -3 -16 -11 -13 -18 3 -8 -3 -16 -12 -18 -12 -3 -10
-5 6 -6 13 0 32 -6 43 -12 15 -8 43 -5 114 11 57 13 108 19 132 15 27 -4 32
-3 17 4 -33 15 -126 16 -167 2 -47 -16 -109 -7 -100 14 3 8 4 14 2 14 -2 -1
-12 -3 -22 -6z"/>
<path d="M1156 2297 c-14 -47 -26 -93 -25 -103 0 -11 13 26 29 81 16 55 27
101 25 103 -2 2 -15 -35 -29 -81z"/>
<path d="M1382 2298 c-29 -79 -26 -275 6 -335 43 -81 128 -154 165 -140 7 3 4
8 -8 12 -48 17 -64 30 -98 82 -38 57 -51 97 -19 55 18 -24 71 -62 85 -62 5 0
-11 15 -35 33 -23 18 -53 48 -66 67 -21 32 -23 43 -21 157 2 67 6 120 10 117
4 -2 5 6 1 18 -3 13 -1 19 5 15 7 -5 9 0 6 13 -3 11 -7 20 -8 20 -2 0 -12 -24
-23 -52z"/>
<path d="M2178 2344 c-4 -3 -32 -16 -65 -30 -32 -13 -50 -24 -40 -24 10 0 32
6 50 13 48 20 107 30 107 17 0 -5 5 -10 12 -10 8 0 8 4 -2 14 -18 17 -54 29
-62 20z"/>
<path d="M2166 2291 c-16 -6 -9 -13 42 -38 34 -17 62 -29 62 -27 0 2 -20 17
-45 33 -28 18 -41 31 -33 34 7 3 9 5 3 6 -5 0 -19 -4 -29 -8z"/>
<path d="M813 2195 c0 -38 2 -53 4 -32 2 20 2 52 0 70 -2 17 -4 1 -4 -38z"/>
<path d="M840 2112 c0 -22 5 -44 10 -47 7 -4 8 8 4 37 -9 57 -14 61 -14 10z"/>
<path d="M1030 2093 c-25 -26 -36 -41 -25 -35 24 13 80 70 74 76 -2 2 -24 -16
-49 -41z"/>
<path d="M2180 2081 c25 -22 50 -40 55 -40 12 0 -52 56 -80 70 -11 6 0 -8 25
-30z"/>
<path d="M2350 1980 c0 -29 2 -51 5 -48 8 7 9 87 2 95 -4 3 -7 -18 -7 -47z"/>
<path d="M1910 1959 c0 -6 -6 -9 -14 -6 -8 3 -16 2 -18 -3 -2 -4 -47 -11 -101
-14 -101 -6 -149 -21 -167 -55 -13 -25 -13 -41 0 -41 6 0 10 9 10 19 0 11 4
22 9 25 5 4 7 -3 4 -13 -4 -16 0 -19 19 -17 12 2 32 6 43 9 35 11 214 32 255
31 22 -1 90 -35 87 -43 -2 -3 10 -19 26 -36 29 -29 30 -29 22 -5 -12 39 -28
57 -86 101 -70 53 -89 63 -89 48z"/>
<path d="M1725 1796 c-16 -7 -39 -23 -50 -36 -18 -20 -16 -20 19 4 22 15 50
29 64 33 44 11 150 -4 189 -26 35 -20 36 -20 15 -1 -46 39 -175 53 -237 26z"/>
<path d="M1403 1741 c21 -47 22 -48 25 -19 2 18 -3 37 -14 49 -29 33 -34 21
-11 -30z"/>
<path d="M1065 1764 c-16 -8 -38 -24 -47 -34 -10 -10 -26 -24 -35 -29 -16 -9
-16 -12 -3 -21 20 -13 39 -13 20 1 -13 9 -13 10 0 6 8 -2 15 -12 15 -23 0 -10
9 -24 20 -31 24 -15 49 -17 41 -4 -4 5 3 7 14 4 11 -3 17 -10 13 -15 -3 -6 0
-9 7 -6 28 9 19 24 -25 46 -25 12 -45 26 -45 32 0 9 68 60 82 60 4 0 4 -15 1
-34 -4 -25 0 -39 14 -53 11 -11 17 -25 15 -32 -3 -8 1 -11 9 -8 8 3 31 11 51
18 31 10 39 18 44 46 3 18 12 33 20 33 8 0 14 -4 14 -8 0 -12 41 -54 47 -48
15 14 -54 91 -95 107 -38 15 -144 10 -177 -7z m121 -78 c21 -8 45 4 54 28 8
20 9 19 9 -5 1 -32 -15 -47 -57 -55 -27 -6 -33 -3 -43 20 -10 21 -9 32 2 54
l13 27 4 -32 c2 -17 10 -34 18 -37z m44 50 c0 -9 -9 -14 -20 -13 -11 1 -20 7
-20 14 0 7 9 13 20 13 11 0 20 -6 20 -14z"/>
<path d="M1744 1766 c-39 -17 -110 -89 -93 -95 7 -2 24 10 38 28 14 17 28 31
31 31 3 0 6 -15 7 -34 1 -30 -1 -33 -25 -29 l-27 3 25 -8 c70 -24 123 -21 68
3 -15 7 -23 19 -23 35 0 31 29 34 33 3 6 -40 44 -35 54 7 2 9 -4 15 -16 15
-11 0 -21 6 -24 13 -6 18 45 15 52 -4 13 -34 6 -64 -19 -80 -28 -18 -26 -26 6
-31 12 -2 18 1 14 8 -4 6 1 16 10 23 12 8 17 26 17 54 -1 47 4 47 63 -1 l29
-25 -34 -21 c-19 -11 -43 -21 -52 -21 -36 0 -17 -18 22 -22 31 -3 41 0 46 14
3 11 11 15 22 11 9 -3 14 -3 10 2 -9 10 16 35 36 35 9 0 16 5 16 10 0 6 -8 10
-18 10 -11 0 -27 10 -38 21 -46 53 -161 75 -230 45z"/>
<path d="M937 1643 c-4 -3 -6 -38 -6 -77 l2 -71 8 75 c8 77 7 85 -4 73z"/>
<path d="M1210 1605 c-19 -7 -46 -14 -60 -15 -14 -1 -19 -4 -12 -7 16 -6 100
16 108 28 6 11 8 11 -36 -6z"/>
<path d="M1761 1600 c9 -5 36 -12 60 -15 l44 -5 -50 15 c-57 17 -77 19 -54 5z"/>
<path d="M1367 1466 c-54 -49 -52 -89 8 -139 30 -26 55 -38 78 -39 38 -1 117
38 117 59 0 7 11 13 26 13 14 0 23 4 19 10 -9 15 -61 12 -74 -4 -10 -11 -8
-15 6 -18 14 -3 11 -8 -15 -21 -29 -16 -34 -16 -48 -2 -20 20 -28 19 -20 -1 5
-14 1 -16 -26 -10 -36 6 -98 65 -98 92 0 9 16 32 35 51 46 46 40 53 -8 9z"/>
<path d="M1634 1450 c27 -42 17 -82 -29 -108 -20 -11 -20 -11 2 -12 48 0 70
79 32 121 l-21 24 16 -25z"/>
<path d="M1366 1381 c-3 -5 13 -11 37 -13 47 -5 59 -1 37 12 -19 12 -67 13
-74 1z"/>
<path d="M1150 1310 c-11 -11 -20 -28 -20 -37 1 -16 2 -16 12 2 6 11 21 28 32
37 12 10 16 17 9 18 -7 0 -22 -9 -33 -20z"/>
<path d="M1838 1280 c16 -28 32 -39 32 -22 0 12 -30 52 -40 52 -5 0 -1 -13 8
-30z"/>
<path d="M1190 1227 c0 -20 90 -65 141 -71 24 -3 36 -3 27 0 -10 3 -18 10 -18
15 0 6 9 7 20 4 11 -3 20 -3 20 2 0 11 81 4 97 -9 7 -6 14 -5 18 2 8 14 110 9
109 -5 -1 -16 -85 -24 -155 -15 -35 4 -66 6 -68 4 -14 -13 24 -19 116 -19 88
0 107 3 117 18 14 18 32 24 21 7 -10 -16 41 -11 102 10 56 19 77 36 66 52 -2
5 -24 -3 -48 -17 -52 -30 -65 -31 -140 -5 -57 20 -99 27 -60 10 20 -9 -40 -6
-115 5 -27 4 -30 3 -15 -4 17 -8 16 -10 -11 -10 -17 -1 -58 -4 -90 -7 -53 -5
-62 -3 -88 20 -32 29 -46 33 -46 13z"/>
<path d="M987 1045 c-32 -41 -25 -45 18 -11 21 17 27 28 20 35 -7 7 -19 0 -38
-24z"/>
<path d="M1468 1053 c-10 -2 -18 -11 -18 -19 0 -16 16 -19 25 -3 4 6 19 10 33
9 40 -3 49 0 27 10 -22 9 -40 10 -67 3z"/>
<path d="M1040 1022 c0 -55 -52 -81 -92 -45 -10 9 -18 11 -18 5 0 -18 56 -52
87 -52 16 0 34 5 41 12 17 17 28 2 12 -17 -7 -8 -27 -15 -44 -15 -27 -1 -29
-2 -13 -11 10 -6 34 -9 52 -7 l33 4 4 -57 3 -57 -42 -21 c-22 -11 -70 -23
-105 -27 -80 -9 -112 -25 -144 -74 -14 -22 -48 -53 -75 -70 l-48 -31 -55 17
c-46 15 -59 15 -86 4 -31 -13 -80 -67 -80 -88 0 -7 -14 -12 -30 -12 -71 0
-137 -56 -124 -106 3 -13 -3 -23 -18 -31 -239 -121 -292 -150 -296 -160 -7
-23 24 -14 143 42 64 30 120 55 124 55 5 0 14 7 21 15 7 9 17 14 21 13 4 -2
40 -66 80 -143 79 -155 85 -165 105 -165 9 0 -4 27 -35 73 -52 77 -95 157
-117 219 -11 33 -11 43 2 75 25 60 64 95 64 58 0 -29 9 -22 106 76 28 29 43
37 70 36 29 -1 34 -4 31 -19 -5 -17 -3 -17 19 1 18 14 34 18 59 14 28 -5 39
-1 63 23 59 59 64 61 46 18 -9 -22 -20 -44 -25 -49 -15 -20 -26 -90 -17 -115
5 -13 11 -67 14 -120 3 -52 10 -97 14 -100 5 -3 5 -12 0 -20 -13 -21 -12 -30
2 -27 7 1 13 -2 13 -8 1 -5 9 -34 18 -64 9 -30 16 -55 14 -57 -1 -1 -15 18
-32 42 -16 24 -42 48 -57 53 -51 18 -158 241 -158 331 0 16 -4 32 -10 35 -14
9 -13 -1 14 -108 24 -92 53 -156 103 -223 14 -18 21 -38 17 -48 -10 -25 -22
-19 -38 19 -16 38 -31 49 -17 13 22 -55 51 -111 46 -88 -5 22 -4 23 5 7 7 -10
9 -25 6 -33 -4 -11 2 -14 29 -12 19 1 35 6 35 11 0 5 -7 6 -16 3 -12 -5 -15
-2 -10 9 3 9 2 13 -4 10 -6 -3 -15 6 -20 20 -13 34 -13 35 5 35 9 0 28 -20 43
-45 23 -37 32 -44 58 -45 l32 0 -14 66 c-8 36 -17 71 -21 77 -13 22 -33 137
-39 234 -8 119 0 147 52 181 42 26 82 32 45 6 -22 -16 -23 -21 -18 -88 11
-136 39 -180 170 -279 70 -52 175 -117 191 -117 11 0 -73 59 -154 108 -71 44
-148 107 -140 115 3 3 25 1 50 -4 25 -5 104 -11 175 -15 72 -3 151 -12 178
-21 43 -13 52 -13 95 2 71 26 95 38 115 57 20 20 23 36 4 20 -7 -6 -45 -24
-84 -40 -65 -27 -74 -28 -109 -16 -60 20 -102 25 -256 29 -84 1 -154 7 -166
14 -38 20 -71 129 -57 190 5 25 20 38 83 72 128 70 142 83 142 135 0 24 5 44
10 44 17 0 12 101 -6 122 -10 10 -19 40 -22 67 -3 35 -11 56 -28 72 l-24 22 0
-31z m41 -320 c-24 -45 -120 -96 -199 -106 -53 -7 -53 -7 -41 16 29 55 64 74
129 69 14 0 39 8 55 19 39 26 70 27 56 2z"/>
<path d="M1829 943 c-41 -31 -94 -75 -119 -96 -51 -45 -104 -71 -132 -64 -11
3 -15 1 -12 -5 5 -7 -25 -9 -90 -6 -92 5 -99 7 -149 42 -28 21 -88 68 -132
106 -44 38 -84 70 -90 70 -5 0 35 -44 90 -97 55 -53 106 -95 114 -94 7 1 10
-3 6 -9 -3 -6 -3 -9 2 -8 4 1 29 -4 56 -12 33 -10 46 -19 42 -29 -4 -11 -3
-11 9 -2 8 7 36 11 63 10 27 -1 54 0 59 4 5 3 16 2 24 -4 21 -12 38 -11 20 2
-12 8 -10 9 8 4 13 -4 22 -2 22 5 0 6 5 8 10 5 6 -4 7 -12 3 -18 -4 -7 0 -6
10 2 19 15 23 26 5 15 -7 -4 -8 -3 -4 4 4 7 13 12 21 12 7 0 15 3 17 8 3 7
105 94 172 145 31 24 65 67 52 67 -2 0 -37 -26 -77 -57z"/>
<path d="M1833 684 c-90 -82 -136 -131 -164 -173 -30 -44 -29 -43 32 20 35 36
80 79 99 95 51 44 85 84 72 84 -6 0 -24 -12 -39 -26z"/>
<path d="M1107 616 c-5 -21 -6 -40 -3 -43 9 -10 18 24 14 54 -3 26 -4 25 -11
-11z"/>
<path d="M1909 630 c-3 -14 -2 -38 2 -55 5 -24 7 -27 13 -13 5 10 4 35 -1 55
-8 34 -10 35 -14 13z"/>
<path d="M838 262 c28 -49 89 -120 115 -133 12 -7 0 11 -28 42 -27 30 -63 70
-78 89 l-29 35 20 -33z"/>
<path d="M2128 59 c-42 -44 -47 -55 -32 -58 11 -2 34 13 61 43 28 29 49 43 59
39 19 -7 13 -25 -14 -39 -12 -6 -19 -14 -15 -17 3 -4 1 -7 -5 -7 -7 0 -12 -4
-12 -10 0 -17 29 -11 50 10 25 25 26 65 3 74 -10 3 -24 9 -31 12 -9 4 -33 -15
-64 -47z"/>
</g>
</svg>
