<?xml version="1.0" standalone="no"?>
<!DOCTYPE svg PUBLIC "-//W3C//DTD SVG 20010904//EN"
 "http://www.w3.org/TR/2001/REC-SVG-20010904/DTD/svg10.dtd">
<svg version="1.0" xmlns="http://www.w3.org/2000/svg"
 width="300.000000pt" height="300.000000pt" viewBox="0 0 300.000000 300.000000"
 preserveAspectRatio="xMidYMid meet">
<metadata>
Created by potrace 1.10, written by Peter Selinger 2001-2011
</metadata>
<g transform="translate(0.000000,300.000000) scale(0.100000,-0.100000)"
fill="#000000" stroke="none">
<path d="M636 2865 c6 -24 4 -25 -39 -25 -42 0 -44 -1 -39 -25 3 -20 0 -25
-17 -25 -19 0 -21 -6 -21 -49 0 -27 4 -51 9 -53 6 -1 11 -45 13 -95 2 -67 6
-93 15 -93 7 0 13 -11 13 -25 0 -16 6 -25 15 -25 10 0 15 -10 15 -30 0 -29 1
-30 51 -30 46 0 51 -2 46 -20 -5 -18 0 -20 49 -20 51 0 54 1 54 25 0 18 5 25
20 25 13 0 20 7 20 20 0 11 6 20 13 20 16 0 47 56 47 86 0 15 6 24 15 24 11 0
15 -11 15 -40 0 -22 5 -40 10 -40 6 0 10 -7 10 -15 0 -9 6 -18 13 -21 8 -3 20
-20 27 -39 8 -19 17 -35 22 -35 4 0 8 -15 8 -32 l0 -33 178 -3 179 -4 -5 31
c-3 24 0 31 12 31 9 0 16 5 16 12 0 6 18 26 40 45 40 35 52 63 26 63 -8 0 -18
-9 -21 -20 -3 -11 -15 -20 -26 -20 -12 0 -23 -10 -30 -27 -12 -31 -37 -52 -62
-53 -15 0 -17 5 -12 30 6 29 6 30 -24 24 l-31 -6 0 51 c0 48 2 51 25 51 22 0
25 -4 25 -40 0 -31 3 -38 15 -34 17 7 20 50 4 60 -7 4 -8 9 -1 13 6 4 6 15 0
31 -8 22 -10 23 -19 8 -6 -10 -17 -18 -26 -18 -38 0 -60 -93 -28 -122 8 -7 22
-19 30 -27 19 -15 13 -27 -7 -15 -7 5 -16 9 -19 9 -3 0 -18 15 -33 33 -39 45
-71 43 -121 -9 -35 -37 -40 -40 -50 -24 -5 10 -28 45 -49 79 -21 33 -42 72
-46 86 -3 14 -17 30 -30 37 -30 15 -46 4 -70 -52 -10 -22 -38 -59 -62 -83
l-45 -43 -59 28 c-73 35 -119 99 -106 148 l9 30 13 -25 c7 -14 26 -40 41 -58
16 -18 29 -39 29 -46 0 -19 33 -46 57 -46 27 0 53 26 83 84 28 54 122 144 160
152 14 2 42 14 62 24 20 11 45 20 54 20 10 0 25 7 35 16 10 9 40 19 66 22 26
2 60 13 75 23 23 17 47 19 235 19 197 0 211 -1 228 -20 12 -13 31 -20 57 -20
22 0 57 -9 79 -20 21 -11 57 -29 78 -40 22 -11 50 -20 62 -20 42 0 152 -103
190 -179 14 -28 32 -48 50 -55 35 -13 38 -26 5 -26 -28 0 -80 58 -115 128 -16
32 -27 42 -45 42 -20 0 -32 -14 -65 -74 -42 -76 -86 -136 -101 -136 -5 0 -18
10 -30 22 -11 12 -20 17 -20 11 0 -6 -3 -18 -6 -27 -5 -13 1 -16 26 -16 25 0
31 -4 28 -17 -3 -15 -16 -18 -90 -20 -68 -2 -87 1 -92 12 -4 11 3 15 29 15 27
0 35 4 35 18 0 19 -20 54 -20 35 0 -6 -16 -21 -35 -33 -26 -16 -43 -19 -69
-15 -40 8 -70 45 -61 75 4 12 2 20 -4 20 -6 0 -11 -4 -11 -10 0 -19 -29 -10
-53 16 -16 17 -24 39 -25 65 l-2 39 73 1 c49 0 66 3 52 9 -28 12 -109 12 -121
0 -7 -7 -21 -5 -42 6 -25 12 -46 14 -85 9 -91 -12 -88 -24 6 -25 80 0 87 -2
87 -20 0 -11 -4 -20 -9 -20 -17 0 1 -39 20 -45 10 -4 19 -12 19 -18 0 -7 13
-24 28 -37 15 -14 31 -33 34 -42 5 -11 14 -15 27 -11 18 5 20 2 14 -31 l-6
-37 144 5 c79 2 156 5 172 5 23 1 27 5 27 31 0 20 5 30 15 30 8 0 15 9 15 20
0 11 5 20 10 20 6 0 10 9 10 20 0 11 7 20 15 20 8 0 15 9 15 20 0 11 7 20 15
20 11 0 15 11 15 41 0 51 23 49 30 -4 6 -41 65 -131 80 -122 6 3 10 -5 10 -19
0 -25 3 -26 55 -26 48 0 55 3 53 18 -3 14 5 17 47 18 50 1 50 1 47 32 -3 24 1
32 12 32 10 0 16 9 16 25 0 16 6 25 15 25 12 0 15 17 15 94 0 53 4 96 10 98 5
2 13 24 16 51 7 46 6 47 -21 47 -24 0 -26 3 -21 25 6 24 4 25 -34 25 -36 0
-40 2 -40 25 0 22 -4 25 -35 25 -32 0 -35 -2 -35 -30 0 -25 4 -30 25 -30 15 0
24 -5 23 -12 -2 -7 5 -12 15 -10 12 2 17 -4 17 -23 0 -18 5 -25 20 -25 16 0
20 -7 20 -35 0 -24 -5 -35 -15 -35 -11 0 -15 -11 -15 -41 0 -36 -2 -40 -22
-37 -19 2 -23 -2 -24 -27 -2 -45 -2 -45 -29 -35 -25 9 -25 9 -25 -45 0 -51 -1
-55 -22 -51 -19 2 -23 9 -23 37 0 27 -4 33 -17 31 -14 -2 -18 4 -18 29 0 26
-3 31 -20 26 -23 -6 -26 3 -7 22 10 11 8 12 -10 6 -20 -5 -23 -3 -23 19 0 23
-4 26 -36 26 -33 0 -36 2 -32 25 5 24 4 25 -55 25 -54 0 -59 2 -54 20 5 18 0
20 -43 20 -44 0 -48 2 -43 21 6 21 4 22 -66 17 -76 -6 -73 -8 -55 37 3 7 -88
10 -261 10 -198 0 -265 -3 -265 -12 0 -6 5 -15 10 -18 26 -16 4 -22 -66 -17
l-75 5 6 -25 c6 -25 6 -25 -45 -20 -50 5 -52 4 -45 -17 6 -20 3 -21 -49 -21
-55 0 -56 -1 -56 -29 0 -26 -3 -28 -37 -27 -36 1 -38 -1 -35 -26 2 -21 -1 -26
-13 -22 -11 5 -14 2 -9 -10 5 -12 2 -15 -10 -10 -13 5 -16 -1 -16 -26 0 -27
-3 -30 -20 -25 -18 6 -20 2 -20 -34 0 -37 -2 -41 -25 -41 -23 0 -25 3 -25 50
0 49 -1 50 -31 50 -29 0 -30 2 -24 30 6 27 4 30 -19 30 -24 0 -26 4 -26 40 0
28 -4 40 -15 40 -10 0 -13 10 -11 38 3 29 8 38 25 40 15 2 21 11 21 29 0 18 4
24 15 19 8 -3 15 -1 15 4 0 6 12 10 26 10 20 0 25 4 20 16 -3 9 -6 22 -6 30 0
9 -11 14 -35 14 -33 0 -35 -2 -29 -25z m1784 -304 c0 -26 -42 -115 -58 -125
-4 -2 -23 -7 -42 -10 -30 -6 -33 -5 -19 6 9 7 19 24 23 36 9 27 78 122 89 122
4 0 7 -13 7 -29z m-1210 -187 c0 -31 2 -34 30 -34 18 0 30 -5 30 -13 0 -10
-22 -13 -90 -13 -79 1 -90 3 -90 19 0 10 8 17 20 17 15 0 20 7 20 29 0 27 3
29 40 29 39 1 40 0 40 -34z"/>
<path d="M455 2570 l0 -130 28 0 c26 0 27 -2 27 -46 0 -35 -3 -45 -14 -41 -11
4 -14 -10 -15 -64 -1 -57 1 -69 14 -69 11 0 15 -7 13 -22 -2 -19 1 -23 20 -21
21 3 22 -1 22 -57 0 -60 0 -60 -30 -60 l-30 0 0 -140 0 -139 30 6 c30 5 30 5
30 -41 l0 -46 -49 0 c-48 0 -50 -1 -48 -27 2 -24 -2 -28 -20 -26 -23 3 -23 2
-23 -137 0 -133 1 -140 20 -140 17 0 20 -7 20 -50 0 -44 2 -50 21 -50 18 0 20
-4 15 -25 -5 -20 -3 -25 14 -25 15 0 20 -7 20 -25 0 -16 6 -25 15 -25 10 0 15
-10 15 -30 0 -24 4 -30 18 -28 11 2 18 -4 20 -20 2 -12 10 -22 18 -22 8 0 14
-9 14 -20 0 -18 7 -20 54 -20 29 0 68 3 86 6 l32 7 -6 206 c-4 113 -9 257 -12
319 -4 89 -3 112 8 112 9 0 12 12 10 45 -3 36 -1 45 12 45 12 0 16 10 16 36 0
28 3 35 15 30 12 -4 15 4 15 40 0 54 20 51 21 -4 0 -27 2 -32 8 -18 4 11 7 43
6 73 -2 46 0 53 16 53 14 0 19 7 19 25 l0 25 205 0 c198 0 205 -1 205 -20 0
-13 -12 -25 -35 -34 -24 -10 -35 -22 -35 -35 0 -12 5 -21 10 -21 20 0 68 29
73 45 4 8 18 15 32 15 20 0 25 5 25 25 0 22 4 25 38 25 20 0 48 3 61 7 19 5
22 2 19 -13 -2 -10 -12 -20 -23 -22 -11 -2 -24 -9 -30 -15 -13 -15 -81 -47
-100 -47 -19 0 -55 -36 -55 -55 0 -19 -4 -19 62 4 50 17 78 30 118 53 8 5 36
18 63 30 26 11 47 27 47 34 0 8 10 14 24 14 14 0 27 4 30 8 7 12 96 14 96 2 0
-17 -40 -33 -54 -20 -10 8 -15 7 -20 -5 -3 -8 -12 -15 -21 -15 -8 0 -15 -7
-15 -15 0 -9 -9 -15 -25 -15 -21 0 -25 -5 -25 -30 0 -16 4 -30 10 -30 5 0 47
22 93 48 47 27 92 52 101 55 9 4 16 11 16 17 0 6 47 10 130 10 129 0 130 0
127 -22 -1 -17 3 -23 16 -22 13 1 17 -6 17 -32 0 -27 4 -34 20 -34 17 0 20 -7
20 -40 0 -31 3 -38 15 -34 12 5 15 -3 15 -35 0 -30 4 -41 15 -41 11 0 15 -12
15 -44 0 -24 4 -46 9 -48 6 -2 7 -129 3 -318 l-7 -315 -25 -1 c-16 0 -24 -5
-22 -14 2 -7 0 -31 -3 -52 -6 -35 -9 -38 -41 -38 -31 0 -34 -2 -28 -24 8 -34
-12 -66 -41 -66 -22 0 -25 -4 -25 -35 0 -29 -4 -35 -21 -35 -13 0 -23 -8 -26
-20 -7 -24 -41 -34 -88 -26 -34 7 -35 6 -35 -25 0 -30 2 -31 30 -25 l30 6 0
-105 c0 -58 -4 -107 -10 -110 -5 -3 -10 -16 -9 -28 0 -22 0 -21 10 2 7 18 15
22 34 19 24 -5 25 -3 25 48 0 30 2 54 4 54 2 0 32 -16 66 -35 34 -19 68 -35
76 -35 10 0 14 -13 14 -44 0 -36 -3 -44 -17 -42 -13 1 -17 -5 -15 -22 1 -17
-4 -25 -18 -29 -11 -3 -20 -9 -20 -14 0 -5 -9 -9 -20 -9 -15 0 -20 -7 -20 -25
0 -20 -5 -25 -25 -25 -20 0 -25 -5 -25 -25 0 -20 -5 -25 -24 -25 -21 0 -25 -5
-28 -37 l-3 -38 -400 0 -400 0 -5 35 c-4 29 -9 35 -30 35 -20 0 -26 6 -28 28
-3 22 -8 27 -25 25 -16 -2 -23 3 -25 19 -2 15 -10 23 -23 23 -10 0 -19 6 -19
14 0 7 -9 16 -20 19 -12 3 -20 14 -20 26 0 14 -6 21 -20 21 -16 0 -20 7 -20
38 0 38 1 39 73 73 39 19 75 36 80 37 4 2 7 -17 7 -42 0 -44 1 -46 30 -46 l30
0 0 109 c0 108 0 109 23 103 12 -3 26 -11 30 -19 4 -7 16 -13 26 -13 10 0 23
-11 29 -25 6 -14 17 -25 23 -25 7 0 22 -10 34 -22 70 -71 63 -69 238 -69 88 0
163 4 166 9 8 12 102 77 124 85 9 3 17 13 17 21 0 9 11 18 25 22 26 6 34 29
13 36 -22 8 -58 -4 -58 -18 0 -14 -40 -41 -40 -27 0 4 -7 0 -14 -9 -7 -10 -30
-31 -51 -48 l-38 -30 -142 0 c-139 0 -142 0 -178 28 -20 15 -36 35 -37 45 0
12 -8 17 -29 17 -21 0 -32 6 -36 19 -4 13 -17 21 -38 23 -26 2 -33 8 -35 29
-3 25 -5 26 -50 21 -43 -4 -49 -2 -61 22 -8 14 -22 26 -32 26 -11 0 -20 11
-24 30 -4 16 -11 30 -16 30 -18 0 -49 41 -49 65 0 20 -6 27 -31 32 -34 6 -52
39 -47 82 2 21 -1 25 -17 23 -25 -5 -21 2 -27 -54 l-6 -48 34 0 c34 0 34 -1
34 -45 0 -44 1 -45 33 -45 28 0 35 -5 45 -33 7 -18 12 -45 12 -60 0 -25 3 -27
45 -27 l45 0 0 -65 0 -65 -210 0 -210 0 6 -26 c6 -25 5 -26 -37 -23 -40 3 -44
2 -41 -19 3 -22 2 -22 -117 -22 -114 0 -121 1 -121 20 0 18 -5 19 -61 13 l-62
-6 5 26 c5 27 5 27 -58 27 l-64 0 0 31 c0 24 -3 30 -16 25 -9 -3 -22 -6 -30
-6 -25 0 -15 -37 17 -64 19 -16 43 -26 63 -26 18 0 41 -6 51 -14 17 -12 18
-17 7 -40 -7 -15 -12 -52 -12 -82 0 -31 -7 -69 -16 -86 -12 -23 -13 -36 -5
-52 6 -11 9 -38 8 -59 -1 -21 1 -41 5 -43 4 -2 5 -26 3 -52 -10 -111 -9 -122
11 -122 13 0 15 20 12 165 -2 125 0 166 10 170 8 3 12 30 12 85 l0 80 53 -3
c39 -3 53 -8 55 -20 3 -15 15 -17 113 -11 l109 7 0 -236 0 -237 25 0 25 0 0
250 0 250 30 0 c25 0 30 4 30 24 0 31 15 36 116 36 l84 0 0 -280 c0 -273 0
-280 20 -280 19 0 20 7 20 175 0 137 3 175 13 175 19 0 36 -20 30 -36 -4 -10
3 -14 21 -14 19 0 26 -5 26 -20 0 -13 7 -20 20 -20 15 0 20 -7 20 -25 0 -20 5
-25 25 -25 20 0 24 -5 22 -22 -1 -17 3 -22 16 -20 12 2 21 -4 24 -17 4 -15 13
-21 34 -21 23 0 29 -5 30 -22 0 -19 2 -20 7 -6 7 17 35 18 350 20 188 2 342 0
342 -4 0 -5 -7 -8 -15 -8 -8 0 -15 -7 -15 -15 0 -10 -10 -15 -30 -15 -25 0
-30 -4 -30 -25 0 -28 24 -35 34 -9 3 8 10 12 16 9 5 -3 14 5 20 19 5 14 16 26
25 26 8 0 15 7 15 15 0 10 10 15 34 15 30 0 35 3 38 27 3 24 7 28 31 25 24 -2
27 0 27 28 0 27 3 30 30 30 27 0 29 2 24 30 -6 28 -5 30 25 30 26 0 31 4 31
25 0 17 6 25 18 25 15 0 17 -11 13 -121 -2 -66 0 -145 4 -175 5 -45 10 -54 27
-54 20 0 20 4 16 280 l-3 280 93 0 93 0 11 -31 c8 -25 15 -30 37 -27 l26 3 3
-252 2 -253 25 0 25 0 0 235 0 235 105 0 c87 0 105 3 105 15 0 12 13 15 61 15
53 0 64 3 81 25 14 18 29 25 54 25 44 0 104 45 104 78 0 18 -6 22 -30 22 -27
0 -30 -3 -30 -30 l0 -30 -66 0 -66 0 6 -26 7 -27 -61 6 c-56 6 -62 5 -67 -13
-5 -18 -14 -20 -115 -20 l-110 0 6 30 c5 28 4 30 -14 20 -10 -5 -30 -10 -44
-10 -21 0 -26 5 -26 25 l0 25 -210 0 -210 0 0 65 0 65 45 0 c43 0 45 1 45 29
0 15 5 42 11 60 9 27 16 31 45 31 34 0 34 1 34 44 0 41 2 45 28 48 25 3 27 6
27 48 l0 45 88 -4 87 -3 0 26 c0 19 5 26 20 26 13 0 20 7 20 20 0 13 7 20 20
20 16 0 20 7 20 30 0 20 5 30 15 30 9 0 15 9 15 25 0 16 6 25 15 25 8 0 15 9
15 20 0 11 7 20 15 20 11 0 15 12 15 50 0 43 3 50 20 50 19 0 20 7 20 140 l0
140 -25 0 c-22 0 -25 3 -19 25 6 24 5 25 -45 25 l-51 0 0 46 0 47 35 -6 35 -6
0 140 0 139 -35 0 -35 0 0 60 c0 57 1 60 25 60 18 0 23 4 19 15 -4 8 -2 15 4
15 6 0 12 31 14 70 2 56 0 70 -12 73 -12 3 -15 14 -12 46 4 36 7 41 28 41 l24
0 0 131 c0 115 -2 130 -16 125 -9 -3 -20 -6 -26 -6 -6 0 -8 -44 -6 -120 3
-119 3 -120 -19 -120 -21 0 -23 -5 -23 -45 0 -33 -4 -45 -15 -45 -12 0 -15
-16 -15 -80 0 -47 4 -80 10 -80 6 0 10 -4 10 -10 0 -5 -22 -10 -50 -10 -40 0
-50 -3 -50 -16 0 -15 -9 -16 -70 -11 -65 5 -70 4 -70 -14 0 -21 10 -25 27 -8
14 14 33 3 33 -17 0 -11 -9 -15 -27 -13 -16 1 -72 1 -125 1 -71 -2 -98 -5 -98
-14 0 -16 -1013 -14 -1018 2 -2 6 -60 10 -138 10 l-134 0 0 25 c0 22 -4 25
-35 25 -24 0 -35 5 -35 15 0 11 -11 15 -39 15 -35 0 -38 2 -34 23 4 21 2 23
-31 19 l-36 -4 0 61 0 61 30 0 c29 0 30 -1 30 -50 0 -27 5 -50 10 -50 6 0 10
24 10 54 0 45 -3 54 -20 59 -16 4 -20 14 -20 51 0 39 -3 46 -20 46 -19 0 -20
7 -20 125 l0 125 -27 0 -28 0 0 -130z m2035 -290 c0 -57 -1 -60 -25 -60 -24 0
-25 3 -25 60 0 57 1 60 25 60 24 0 25 -3 25 -60z m-1849 -155 c36 -19 30 -34
-11 -31 -35 3 -44 10 -37 31 8 19 11 19 48 0z m1766 -18 c-4 -26 -1 -36 14
-45 18 -12 19 -23 17 -139 -3 -126 -3 -127 -28 -134 -14 -4 -19 -7 -12 -8 20
-2 15 -75 -7 -95 -10 -9 -27 -38 -36 -64 -10 -26 -29 -60 -42 -75 -18 -22 -23
-41 -23 -83 0 -30 -2 -54 -4 -54 -2 0 -11 -3 -19 -6 -13 -5 -16 16 -20 143 -2
81 -9 168 -15 193 -6 28 -7 49 -1 55 5 5 9 19 9 31 0 17 -7 23 -27 26 -24 3
-28 8 -31 41 -2 24 -8 37 -18 37 -8 0 -19 12 -24 26 -6 14 -21 40 -35 58 -14
18 -25 35 -25 38 0 3 62 10 138 14 75 4 126 10 112 12 -54 7 -55 14 -5 37 74
34 89 33 82 -8z m-1607 -51 c22 -1 25 -6 28 -48 2 -28 -1 -48 -7 -48 -5 0 -11
-24 -13 -52 -3 -48 -5 -53 -25 -52 -19 0 -23 -5 -23 -33 l0 -33 -86 0 c-61 0
-90 4 -100 14 -10 11 -14 42 -14 120 0 89 2 106 16 106 8 0 12 5 9 10 -16 26
9 33 99 25 50 -4 102 -8 116 -9z m110 -2 c0 -14 -53 -73 -61 -68 -5 3 -9 21
-9 40 0 32 2 34 35 34 19 0 35 -3 35 -6z m670 -23 c0 -9 -41 -23 -48 -16 -2 2
-1 8 3 14 8 13 45 15 45 2z m891 -63 c2 -24 1 -61 -2 -83 -4 -31 -6 -22 -10
43 -4 84 6 117 12 40z m-1714 -236 c-5 -20 -12 -101 -14 -179 -4 -132 -12
-167 -27 -127 -3 9 -6 35 -6 59 0 24 -5 47 -11 50 -5 4 -25 39 -44 79 -19 40
-41 78 -49 86 -16 12 -22 51 -10 63 4 3 44 6 89 6 l83 0 -11 -37z m-157 -97
c0 -29 4 -35 21 -35 18 0 20 -5 17 -37 -2 -34 -1 -38 20 -35 21 3 22 1 22 -83
l0 -85 25 6 c16 4 26 2 29 -7 2 -8 7 -76 11 -152 l6 -138 -63 3 c-57 3 -63 5
-66 26 -2 12 -10 22 -18 22 -8 0 -14 10 -14 25 0 16 -6 25 -15 25 -8 0 -15 9
-15 19 0 10 -7 22 -16 25 -11 4 -14 13 -10 30 5 20 2 25 -16 28 -20 3 -23 10
-26 51 -3 39 -6 47 -23 47 -18 0 -19 8 -19 125 0 110 2 127 19 144 22 22 41
28 94 30 36 1 37 0 37 -34z m1930 15 c18 -18 20 -33 20 -150 0 -123 -1 -130
-20 -130 -17 0 -20 -7 -20 -46 0 -37 -4 -47 -20 -51 -13 -3 -20 -14 -20 -29 0
-13 -4 -24 -10 -24 -5 0 -10 -9 -10 -19 0 -10 -7 -21 -15 -25 -8 -3 -15 -14
-15 -25 0 -11 -9 -22 -20 -26 -11 -3 -20 -15 -20 -25 0 -23 -19 -30 -81 -30
l-49 0 0 43 c0 24 3 92 7 150 l6 107 29 0 28 0 0 80 c0 79 0 80 25 80 22 0 25
4 25 40 0 31 3 38 15 34 12 -5 15 2 15 30 l0 36 55 0 c42 0 60 -5 75 -20z
m-1620 -1098 c0 -5 -11 -14 -25 -20 -20 -9 -25 -9 -25 2 0 7 3 16 7 19 9 10
43 9 43 -1z m1240 -17 c0 -30 -1 -30 -40 -7 -34 21 -30 32 12 32 23 0 28 -4
28 -25z"/>
<path d="M760 1985 c-7 -20 -5 -114 3 -106 5 5 6 32 4 62 -2 30 -5 50 -7 44z"/>
<path d="M495 1600 c-7 -11 -1 -13 35 -10 42 3 48 20 8 20 -20 0 -40 -4 -43
-10z"/>
<path d="M576 1386 c3 -45 10 -85 15 -90 5 -6 9 -24 9 -40 0 -29 2 -31 40 -31
l40 -1 0 63 c0 71 -14 85 -23 22 -6 -49 -12 -56 -32 -39 -9 7 -15 29 -15 51 0
22 -4 39 -10 39 -13 0 -1 61 17 81 12 15 11 17 -17 21 l-31 5 7 -81z"/>
<path d="M2445 1600 c28 -12 65 -12 65 0 0 6 -19 10 -42 9 -33 0 -38 -2 -23
-9z"/>
<path d="M2373 1448 c23 -21 27 -31 27 -80 0 -81 -9 -120 -29 -116 -10 2 -17
15 -19 33 -9 96 -32 95 -32 -1 l0 -64 49 0 48 0 7 61 c3 34 6 88 6 120 0 49
-3 59 -17 59 -10 0 -29 3 -43 6 l-25 5 28 -23z"/>
<path d="M1670 2516 c0 -23 3 -24 35 -19 l35 6 0 -51 c0 -48 -1 -51 -29 -54
-22 -2 -27 -7 -22 -20 5 -16 9 -15 39 8 26 21 32 33 32 63 0 38 -10 52 -57 79
-31 16 -33 16 -33 -12z"/>
<path d="M2078 2450 c-13 -44 -15 -84 -6 -109 9 -25 -8 -63 -43 -91 -17 -14
-16 -17 28 -63 25 -27 46 -47 47 -45 1 2 17 27 36 56 l33 53 -41 42 c-39 40
-41 45 -44 112 -2 49 -5 63 -10 45z m67 -180 c14 -16 15 -20 4 -20 -8 0 -20 5
-27 12 -9 9 -12 9 -12 -1 0 -7 -5 -9 -10 -6 -8 5 -7 11 1 21 15 19 23 18 44
-6z"/>
<path d="M901 2385 c3 -52 0 -58 -35 -94 -21 -21 -34 -40 -29 -42 4 -2 19 -25
33 -51 l24 -48 31 29 c16 16 41 34 54 41 l24 12 -20 17 c-35 27 -63 91 -63
143 0 28 -5 48 -11 48 -6 0 -9 -21 -8 -55z m5 -121 c-5 -14 -46 -20 -46 -7 0
4 10 18 23 31 18 20 23 21 25 7 2 -9 1 -23 -2 -31z"/>
<path d="M1501 2367 c-1 -30 3 -46 9 -42 12 7 12 42 0 70 -6 15 -9 8 -9 -28z"/>
<path d="M1440 2249 c-38 -37 -46 -40 -88 -38 -31 2 -47 -1 -50 -10 -3 -10 9
-12 52 -9 48 3 56 1 56 -14 0 -10 4 -18 10 -18 10 0 41 -23 69 -52 16 -17 20
-15 64 30 33 34 46 54 41 65 -3 9 -10 17 -15 17 -5 0 -23 16 -40 35 -17 19
-37 35 -44 35 -7 0 -31 -18 -55 -41z m60 10 c0 -6 -14 -24 -31 -41 -22 -23
-33 -28 -42 -19 -8 8 -4 19 18 41 29 30 55 39 55 19z m36 -46 c11 -11 13 -18
5 -21 -6 -2 -11 -11 -11 -20 0 -10 -9 -23 -19 -29 -27 -17 -51 10 -33 35 7 10
15 25 18 35 8 21 18 22 40 0z"/>
<path d="M1887 2248 c-3 -13 -2 -48 2 -78 l9 -55 1 78 c1 78 -3 95 -12 55z"/>
<path d="M1089 2248 c-7 -56 -3 -112 8 -126 10 -14 12 -5 13 61 0 45 -4 77
-10 77 -5 0 -11 -6 -11 -12z"/>
<path d="M1610 2200 c0 -5 18 -10 40 -10 22 0 40 5 40 10 0 6 -18 10 -40 10
-22 0 -40 -4 -40 -10z"/>
<path d="M974 1822 c-23 -17 -51 -44 -63 -61 -19 -27 -20 -31 -6 -31 9 0 25
10 34 21 16 20 26 21 121 20 56 -1 111 -6 121 -11 10 -6 26 -10 36 -10 14 0
12 5 -12 25 -16 13 -25 24 -20 25 6 0 25 -13 42 -29 17 -15 42 -31 55 -33 12
-3 29 -7 37 -9 8 -2 21 8 29 24 13 26 12 31 -8 52 -19 20 -34 23 -133 29 -62
4 -130 9 -152 12 -33 5 -47 1 -81 -24z m106 2 c0 -6 -65 -34 -77 -34 -4 1 3
10 16 20 21 18 61 28 61 14z m80 -14 c0 -5 -8 -10 -17 -10 -10 0 -29 -3 -43
-6 l-25 -5 25 15 c29 18 60 21 60 6z m95 -8 c23 -16 49 -53 36 -50 -16 3 -61
42 -61 52 0 8 13 7 25 -2z"/>
<path d="M1792 1837 c-99 -10 -116 -15 -132 -35 -27 -33 -4 -90 29 -73 9 4 55
16 103 26 117 23 261 18 282 -11 8 -10 17 -16 21 -12 10 9 -9 38 -49 77 -43
41 -81 45 -254 28z m-29 -43 c-5 -14 -3 -15 15 -5 11 6 31 11 44 11 17 -1 12
-5 -17 -15 -21 -8 -41 -12 -44 -10 -2 3 -11 -1 -19 -8 -13 -10 -14 -9 -7 3 20
37 39 52 28 24z"/>
<path d="M1024 1668 c-30 -33 -66 -58 -82 -58 -11 0 -12 -3 -3 -14 9 -11 9
-16 -1 -22 -8 -5 1 -13 28 -25 59 -26 68 -24 47 11 -17 29 -17 30 2 44 40 30
55 27 55 -9 0 -19 5 -46 12 -60 10 -22 17 -25 68 -25 63 0 80 11 80 52 0 15 4
28 10 28 13 0 30 -34 30 -59 0 -24 25 -29 33 -7 3 8 -3 31 -13 52 -11 21 -18
40 -15 42 2 3 -15 17 -38 32 -32 21 -59 29 -117 34 -69 6 -77 5 -96 -16z m144
-59 c2 -9 -5 -19 -14 -23 -21 -8 -50 17 -39 34 10 16 49 8 53 -11z"/>
<path d="M1830 1681 c-42 -9 -80 -28 -80 -41 0 -6 -10 -10 -21 -10 -17 0 -19
-3 -11 -13 8 -10 6 -22 -9 -46 -22 -36 -19 -61 6 -61 10 0 15 10 15 29 0 16 6
34 14 40 11 9 15 6 21 -16 11 -46 23 -53 87 -53 67 0 73 7 72 78 -1 23 1 42 3
42 4 0 49 -23 72 -38 6 -3 -21 -55 -33 -63 -5 -4 -6 -11 -2 -17 4 -7 16 -1 33
14 14 13 35 24 46 24 13 0 17 5 13 16 -3 9 -6 25 -6 35 0 11 -4 18 -9 14 -6
-3 -28 13 -51 35 -43 43 -73 48 -160 31z m13 -65 c7 -19 -18 -40 -38 -32 -15
6 -20 28 -8 39 12 12 41 7 46 -7z"/>
<path d="M1569 1611 c-38 -38 -49 -61 -29 -61 6 0 10 5 10 12 0 7 17 29 37 50
20 21 33 38 29 38 -5 0 -26 -17 -47 -39z"/>
<path d="M1619 1377 c13 -15 24 -40 25 -57 1 -18 6 -28 12 -26 7 3 22 -6 34
-19 18 -19 21 -31 16 -56 -3 -18 -14 -41 -23 -51 -16 -18 -8 -24 13 -10 17 11
34 48 34 72 0 12 -14 35 -30 52 -17 17 -37 45 -44 63 -8 18 -25 39 -38 46
l-23 12 24 -26z"/>
<path d="M1505 1260 c0 -27 3 -52 8 -56 4 -4 7 0 7 9 0 9 8 21 18 26 16 10 16
10 0 11 -12 0 -18 8 -18 24 0 14 -3 27 -7 29 -5 3 -8 -17 -8 -43z"/>
<path d="M1357 1204 c-15 -16 -6 -34 17 -34 37 0 76 -18 76 -35 0 -9 9 -15 22
-15 20 0 18 4 -18 39 -39 39 -83 59 -97 45z"/>
<path d="M1582 1194 c-12 -8 -22 -21 -22 -29 0 -13 8 -12 89 11 11 3 11 7 1
19 -16 19 -40 19 -68 -1z"/>
<path d="M1821 1070 c19 -16 39 -30 44 -30 6 1 -5 14 -23 30 -18 17 -37 30
-44 30 -6 0 5 -13 23 -30z"/>
<path d="M1762 1024 c-7 -8 -21 -14 -32 -14 -10 0 -25 -9 -32 -19 -8 -11 -25
-19 -38 -19 -14 0 -38 -3 -55 -6 -104 -19 -271 1 -345 41 -44 23 -80 26 -80 6
0 -14 93 -50 165 -64 83 -16 278 -16 332 1 69 21 143 55 140 64 -6 17 -42 24
-55 10z"/>
<path d="M1340 1011 c-29 -7 -23 -9 37 -10 39 0 80 -4 90 -7 14 -6 15 -4 6 6
-14 15 -86 21 -133 11z"/>
<path d="M1528 1008 c-16 -5 -28 -16 -28 -24 0 -12 4 -12 20 -4 11 6 51 17 88
24 l67 14 -60 0 c-33 0 -72 -4 -87 -10z"/>
<path d="M1380 902 c0 -18 36 -32 77 -31 l38 1 -44 9 c-24 4 -49 14 -57 20
-10 8 -14 8 -14 1z"/>
<path d="M1620 775 c0 -10 -16 -15 -62 -18 l-63 -3 68 -2 c61 -2 67 0 67 18 0
11 -2 20 -5 20 -3 0 -5 -7 -5 -15z"/>
<path d="M1304 437 c54 -54 101 -97 104 -97 10 0 -78 88 -143 142 -37 32 -22
14 39 -45z"/>
<path d="M690 252 c0 -139 3 -252 8 -252 8 0 5 490 -3 498 -3 3 -5 -108 -5
-246z"/>
<path d="M2828 480 c-4 -8 -9 -45 -11 -82 -4 -54 -2 -68 9 -68 11 0 14 -31 14
-165 0 -103 4 -165 10 -165 6 0 10 53 10 140 0 77 4 140 9 140 11 0 2 39 -12
58 -6 8 -14 46 -17 85 -3 40 -9 65 -12 57z"/>
<path d="M1415 423 c28 -25 88 -83 135 -128 l85 -82 123 5 c67 2 122 9 122 13
0 5 -56 9 -124 9 l-123 0 -64 63 c-69 69 -186 167 -197 167 -4 0 16 -21 43
-47z"/>
<path d="M291 418 c-1 -27 3 -38 13 -38 8 0 18 5 21 10 3 6 2 10 -4 10 -5 0
-14 12 -19 28 -10 27 -10 26 -11 -10z"/>
<path d="M2211 183 c-1 -107 3 -183 8 -183 5 0 12 8 15 18 9 29 -1 295 -12
322 -8 19 -11 -22 -11 -157z"/>
<path d="M291 168 c1 -206 7 -210 11 -8 3 128 5 145 21 148 16 3 17 -10 17
-152 0 -86 3 -156 8 -156 4 0 7 44 6 98 0 53 1 127 4 164 4 58 7 67 26 71 11
2 -5 5 -36 6 l-58 1 1 -172z"/>
<path d="M598 328 c7 -7 12 -40 12 -78 0 -38 -5 -71 -12 -78 -9 -9 -8 -12 5
-12 15 0 17 12 17 90 0 78 -2 90 -17 90 -13 0 -14 -3 -5 -12z"/>
<path d="M420 256 c0 -19 4 -23 20 -19 11 3 20 14 20 24 0 12 -7 19 -20 19
-14 0 -20 -7 -20 -24z"/>
<path d="M422 93 l1 -98 6 88 c4 62 10 91 21 97 12 8 11 10 -7 10 -22 0 -23
-3 -21 -97z"/>
<path d="M1160 94 c0 -13 54 -62 63 -57 5 3 6 -4 2 -16 -4 -12 -2 -21 4 -21 6
0 11 5 11 12 0 9 3 9 12 0 19 -19 48 -15 48 7 0 16 -5 19 -25 15 -21 -4 -25
-1 -25 20 0 20 -4 23 -21 19 -14 -4 -25 0 -31 11 -8 15 -38 23 -38 10z"/>
<path d="M1510 53 c0 -29 5 -53 10 -53 13 0 13 70 0 90 -7 11 -10 0 -10 -37z"/>
<path d="M1328 20 c26 -25 28 -25 35 0 4 17 0 20 -26 20 l-31 0 22 -20z"/>
<path d="M1700 15 c0 -10 10 -15 30 -15 22 0 28 4 24 15 -4 8 -17 15 -30 15
-15 0 -24 -6 -24 -15z"/>
</g>
</svg>
