<?xml version="1.0" encoding="utf-8"?>
<!-- Generator: Adobe Illustrator 25.0.1, SVG Export Plug-In . SVG Version: 6.00 Build 0)  -->
<svg version="1.0" id="Layer_1" xmlns="http://www.w3.org/2000/svg" xmlns:xlink="http://www.w3.org/1999/xlink" x="0px" y="0px"
	 viewBox="0 0 290 202" style="enable-background:new 0 0 290 202;" xml:space="preserve">
<style type="text/css">
	.st0{fill:#00539F;}
	.st1{fill:#FFFFFF;}
	.st2{fill:none;}
</style>
<path class="st0" d="M224,166.5c0-1.9,2.2-2.2,3.7-2.2h1.4c0.1,0.9-0.2,1.9-0.7,2.6c-0.6,0.7-1.4,1.1-2.3,1.2
	C225,168.1,224,167.5,224,166.5 M222.3,161c1.1-0.9,2.5-1.4,3.9-1.4c1.9,0,2.9,0.7,2.9,2.8h-1.8c-1.5-0.1-2.9,0.2-4.2,0.7
	c-1.4,0.6-2.2,2.1-2.1,3.6c0,2.4,2.2,3.7,4.4,3.7c1.6,0,3.1-0.8,3.9-2.2l0,0c0,0.6,0,1.3,0.1,1.9h2.9c-0.1-1-0.1-1.9-0.1-2.9v-4.8
	c0-3.7-1.6-5.3-5.5-5.3c-1.5,0-3.1,0.4-4.4,1L222.3,161z M215,155.1h3.3v-3.2H215V155.1z M215,170.1h3.3v-12.6H215V170.1z
	 M208.3,170.1h3.3v-18.4h-3.3V170.1z M197.1,166.5c0-1.9,2.2-2.2,3.7-2.2h1.4c0.1,0.9-0.2,1.9-0.6,2.6c-0.6,0.7-1.4,1.2-2.3,1.2
	C197.9,168,197.1,167.5,197.1,166.5 M195.4,161c1.1-0.9,2.5-1.4,3.9-1.4c1.9,0,2.9,0.7,2.9,2.8h-1.8c-1.5-0.1-2.9,0.2-4.2,0.7
	c-1.4,0.6-2.2,2.1-2.1,3.6c0,2.4,2.2,3.7,4.4,3.7c1.6,0,3.1-0.8,3.9-2.2l0,0c0,0.6,0,1.3,0.1,1.9h2.9c-0.1-1-0.1-1.9-0.1-2.9v-4.8
	c0-3.7-1.6-5.3-5.4-5.3c-1.5,0-3.1,0.4-4.4,1L195.4,161z M185.3,170.1h3.3v-4.7c0-1.8,0-5.2,2.6-5.2c0.5,0,1,0.1,1.5,0.3v-3.3
	c-0.3-0.1-0.7-0.1-1.1-0.1c-2,0-3.3,2-3.5,3.2l0,0v-2.9h-3v12.6L185.3,170.1z M177,166.4c0,2.5,1.4,4.1,4,4.1c0.8,0,1.6-0.1,2.4-0.3
	l-0.1-2.6c-0.5,0.2-1,0.3-1.5,0.3c-1.3,0-1.6-1.1-1.6-2.1v-5.9h3v-2.4h-3v-3.6l-3.3,1.1v2.5h-2.4v2.4h2.4V166.4z M172.9,157.7
	c-1.2-0.3-2.4-0.4-3.6-0.4c-2.5,0-5,1.2-5,3.9c0,4.6,5.7,2.9,5.7,5.4c0,1.3-1.4,1.6-2.1,1.6c-1.1,0-2.3-0.3-3.3-0.9l-0.2,2.8
	c1.2,0.3,2.5,0.5,3.7,0.5c2.7,0,5.3-1.2,5.3-4.1c0-4.6-5.7-3.3-5.7-5.3c0-1.1,1.1-1.4,1.9-1.4c1,0,2,0.2,3,0.5L172.9,157.7z
	 M161.9,157.4h-3.3v6.1c0,1.6-0.5,4.2-2.9,4.2c-2.1,0-2.1-2.1-2.1-3.6v-6.8h-3.3v8c0,2.9,1.3,5,4.3,5c1.6,0,3.2-0.7,4.1-2l0,0v1.7
	h3.1V157.4z M131.1,170.1h3.6l1.5-3.9h7l1.5,3.9h3.8l-6.9-17.1h-3.9L131.1,170.1z M142.1,163.5h-5l2.4-7.1l0,0L142.1,163.5z
	 M110.9,170.1h3.3v-6.1c0-1.6,0.5-4.2,2.9-4.2c2.1,0,2.1,2.1,2.1,3.6v6.8h3.3v-7.9c0-2.9-1.3-5-4.3-5c-1.6,0-3.1,0.7-4,2l0,0v-7.5
	h-3.3L110.9,170.1L110.9,170.1z M102.5,166.4c0,2.5,1.4,4.1,4,4.1c0.8,0,1.6-0.1,2.4-0.3l-0.1-2.6c-0.5,0.2-1,0.3-1.5,0.3
	c-1.3,0-1.6-1.1-1.6-2.1v-5.9h2.9v-2.4h-3v-3.6l-3.3,1.1v2.5H100v2.4h2.4L102.5,166.4L102.5,166.4z M98.2,157.4h-3.3v6.1
	c0,1.6-0.5,4.2-2.9,4.2c-2.1,0-2.1-2.1-2.1-3.6v-6.8h-3.3v8c0,2.9,1.3,5,4.3,5c1.6,0,3.2-0.7,4.1-2l0,0v1.7h3.1L98.2,157.4z
	 M74.2,163.4c0-1.9,1.1-3.8,3.2-3.8s3.2,1.8,3.2,3.8s-0.6,4.4-3.2,4.4S74.2,165.6,74.2,163.4 M70.8,163.9c-0.2,3.5,2.5,6.4,6,6.6
	c0.2,0,0.4,0,0.6,0c3.4,0.2,6.4-2.4,6.7-5.8c0-0.3,0-0.5,0-0.8c0.2-3.5-2.5-6.5-6-6.7c-0.2,0-0.5,0-0.7,0
	C73.6,157.1,70.8,159.6,70.8,163.9 M67.8,153.3c-1.3-0.4-2.7-0.7-4.1-0.6c-3.1,0-6,1.4-6,5.2c0,5.7,7.5,4.4,7.5,7.6
	c0,1.6-1.7,2.2-3.1,2.2c-1.4,0-2.7-0.4-3.9-1.1l-0.3,3.1c1.4,0.4,2.9,0.6,4.5,0.6c3.5,0,6.5-1.4,6.5-5.2c0-5.7-7.5-4.4-7.5-7.5
	c0-1.9,1.5-2.4,2.8-2.4c1.2,0,2.4,0.3,3.5,0.8L67.8,153.3z"/>
<path class="st0" d="M212.2,140.6h3.3v-10.3h2.9v-2.4h-2.9v-1.6c0-1,0.3-1.9,1.5-1.9c0.5,0,1,0.2,1.4,0.4l0.3-2.8
	c-0.8-0.2-1.6-0.3-2.4-0.3c-2.6,0-4,1.8-4,4.3v1.8h-2.4v2.4h2.4L212.2,140.6z M198.6,133.9c0-1.9,1.1-3.7,3.2-3.7s3.2,1.8,3.2,3.7
	c0,2.1-0.6,4.3-3.2,4.3S198.6,136,198.6,133.9 M195.3,134.3c0.1,3.7,3.2,6.5,6.9,6.4c3.5-0.1,6.2-2.9,6.4-6.4
	c0.1-3.7-2.7-6.7-6.4-6.9s-6.7,2.7-6.9,6.4C195.2,134,195.2,134.2,195.3,134.3 M177.9,128h-3.6l4.9,13.4c0.1,1.1-0.7,2.1-1.8,2.2
	c-0.1,0-0.2,0-0.4,0c-0.6,0-1.1-0.1-1.7-0.2l-0.2,2.4c0.8,0.2,1.5,0.3,2.3,0.3c3.4,0,4.2-2.8,5.3-5.5l4.8-12.6h-3.4l-3.1,9.2l0,0
	L177.9,128z M167.4,136.8c0,2.5,1.4,4.1,4,4.1c0.8,0,1.6-0.1,2.4-0.3l-0.1-2.7c-0.5,0.2-1,0.3-1.5,0.3c-1.3,0-1.6-1.1-1.6-2.1v-5.9
	h3v-2.4h-3v-3.6l-3.3,1.1v2.6H165v2.4h2.4L167.4,136.8z M159.7,125.7h3.3v-3.2h-3.3L159.7,125.7z M159.7,140.6h3.3V128h-3.3
	L159.7,140.6z M156.5,128.1c-1.2-0.3-2.4-0.4-3.6-0.4c-2.5,0-5,1.2-5,3.9c0,4.6,5.7,2.9,5.7,5.4c0,1.3-1.4,1.6-2.1,1.6
	c-1.1,0-2.3-0.3-3.3-0.9l-0.2,2.8c1.2,0.3,2.5,0.5,3.7,0.5c2.7,0,5.3-1.2,5.3-4.1c0-4.6-5.7-3.3-5.7-5.3c0-1.1,1.1-1.4,1.9-1.4
	c1,0,2,0.2,3,0.5L156.5,128.1z M139.4,140.6h3.3v-4.7c0-1.8,0-5.2,2.6-5.2c0.5,0,1,0.1,1.5,0.3v-3.3c-0.3-0.1-0.7-0.1-1.1-0.1
	c-2,0-3.3,2-3.5,3.2l0,0V128h-2.9V140.6z M135.9,137.2c-1.3,0.8-2.7,1.2-4.2,1.3c-1.8,0.2-3.4-1.2-3.6-3c0-0.1,0-0.1,0-0.2h8.8
	c0-4.4-1.4-7.6-6-7.6c-3.9,0-5.8,3.1-5.8,6.7c0,4.1,2.4,6.6,6.6,6.6c1.5,0.1,3-0.3,4.4-1.1L135.9,137.2z M128.1,133.1
	c-0.1-1.6,1.1-2.9,2.7-3c0.1,0,0.2,0,0.3,0c1.8,0,2.5,1.4,2.7,3H128.1z M115.5,140.6h3.8L124,128h-3.3l-3.1,9.2l0,0l-3.2-9.2h-3.6
	L115.5,140.6z M105.6,125.7h3.3v-3.2h-3.3L105.6,125.7z M105.6,140.6h3.3V128h-3.3L105.6,140.6z M90.6,140.6h3.3v-6.1
	c0-1.6,0.5-4.2,2.9-4.2c2.1,0,2.1,2.1,2.1,3.6v6.8h3.3v-8c0-2.9-1.3-5-4.3-5c-1.6-0.1-3.2,0.7-4.1,2l0,0V128h-3.1V140.6z
	 M73.2,134.5c0,4.6,2.7,6.5,7,6.5s7-1.9,7-6.5v-11h-3.4v9.9c0,3-1,4.9-3.6,4.9s-3.6-1.9-3.6-4.9v-9.9h-3.4V134.5z"/>
<path class="st0" d="M176.4,77c0,17.3-14.1,31.4-31.4,31.4c-17.3,0-31.4-14-31.4-31.4V31.4h62.8V77z"/>
<path class="st1" d="M136.6,60.9l-5.7-3.3l-5.7,3.3V77c0,11,8.9,19.9,19.9,19.9S165,88,165,77V44.5l5.7-3.3L165,38l-5.7,3.3V77
	c0,7.9-6.4,14.3-14.3,14.3s-14.3-6.4-14.3-14.3V64.2L136.6,60.9z"/>
<path class="st1" d="M147.9,77c-0.1,1.6-1.5,2.8-3,2.7c-1.5-0.1-2.6-1.2-2.7-2.7V57.6l5.7-3.3l-5.7-3.3l-5.7,3.3V77
	c-0.2,4.7,3.6,8.7,8.3,8.9c4.7,0.2,8.7-3.6,8.9-8.3c0-0.2,0-0.4,0-0.6V51.1l5.7-3.3l-5.7-3.3l-5.7,3.3V77z"/>
<rect x="45" y="1" class="st2" width="200" height="200"/>
</svg>
